<svg width="124" height="100" viewBox="0 0 124 100" fill="none" xmlns="http://www.w3.org/2000/svg">
<rect y="16.9634" width="42" height="70" rx="8" transform="rotate(-5 0 16.9634)" fill="#9F3DB2"/>
<path fill-rule="evenodd" clip-rule="evenodd" d="M11.0986 28.0385C9.9482 28.1391 9.09722 29.1533 9.19786 30.3036C9.29851 31.454 10.3127 32.305 11.463 32.2044L33.1982 30.3028C34.3486 30.2021 35.1996 29.188 35.0989 28.0376C34.9983 26.8872 33.9841 26.0362 32.8337 26.1369L11.0986 28.0385ZM10.4127 44.1899C10.3121 43.0395 11.163 42.0253 12.3134 41.9247L34.0486 40.0231C35.199 39.9225 36.2131 40.7734 36.3138 41.9238C36.4144 43.0742 35.5634 44.0884 34.4131 44.189L12.6779 46.0906C11.5275 46.1912 10.5133 45.3403 10.4127 44.1899ZM12.9208 48.868C11.7705 48.9687 10.9195 49.9828 11.0201 51.1332C11.1208 52.2836 12.1349 53.1346 13.2853 53.0339L35.0205 51.1324C36.1709 51.0317 37.0218 50.0176 36.9212 48.8672C36.8205 47.7168 35.8064 46.8658 34.656 46.9665L12.9208 48.868ZM11.6275 58.0763C11.5269 56.926 12.3779 55.9118 13.5283 55.8112L35.2634 53.9096C36.4138 53.8089 37.428 54.6599 37.5286 55.8103C37.6293 56.9607 36.7783 57.9748 35.6279 58.0755L13.8927 59.9771C12.7424 60.0777 11.7282 59.2267 11.6275 58.0763ZM14.1357 62.7543C12.9853 62.8549 12.1343 63.8691 12.235 65.0195C12.3356 66.1698 13.3498 67.0208 14.5002 66.9202L36.2353 65.0186C37.3857 64.918 38.2367 63.9038 38.136 62.7534C38.0354 61.603 37.0212 60.752 35.8708 60.8527L14.1357 62.7543ZM14.7431 69.6974C13.5927 69.7981 12.7417 70.8122 12.8424 71.9626C12.943 73.113 13.9572 73.964 15.1076 73.8633L36.8427 71.9617C37.9931 71.8611 38.8441 70.8469 38.7435 69.6965C38.6428 68.5462 37.6287 67.6952 36.4783 67.7958L14.7431 69.6974Z" fill="black" fill-opacity="0.2"/>
<rect y="16.9634" width="42" height="70" rx="8" transform="rotate(-5 0 16.9634)" fill="url(#paint0_linear_153_2470)" fill-opacity="0.2"/>
<rect x="82.1006" y="13.3027" width="42" height="70" rx="8" transform="rotate(5 82.1006 13.3027)" fill="#D1548C"/>
<path fill-rule="evenodd" clip-rule="evenodd" d="M91.1074 26.1368C89.957 26.0362 88.9428 26.8872 88.8422 28.0375C88.7415 29.1879 89.5925 30.2021 90.7429 30.3027L112.478 32.2043C113.628 32.305 114.643 31.454 114.743 30.3036C114.844 29.1532 113.993 28.1391 112.843 28.0384L91.1074 26.1368ZM87.6273 41.9238C87.728 40.7734 88.7421 39.9224 89.8925 40.0231L111.628 41.9246C112.778 42.0253 113.629 43.0394 113.528 44.1898C113.428 45.3402 112.414 46.1912 111.263 46.0905L89.5281 44.189C88.3777 44.0883 87.5267 43.0742 87.6273 41.9238ZM89.285 46.9663C88.1346 46.8657 87.1205 47.7167 87.0198 48.8671C86.9192 50.0174 87.7702 51.0316 88.9205 51.1323L110.656 53.0338C111.806 53.1345 112.82 52.2835 112.921 51.1331C113.022 49.9827 112.171 48.9686 111.02 48.8679L89.285 46.9663ZM86.4125 55.8102C86.5131 54.6599 87.5273 53.8089 88.6777 53.9095L110.413 55.8111C111.563 55.9118 112.414 56.9259 112.314 58.0763C112.213 59.2267 111.199 60.0777 110.048 59.977L88.3132 58.0754C87.1628 57.9748 86.3118 56.9606 86.4125 55.8102ZM88.0703 60.8526C86.9199 60.752 85.9057 61.603 85.8051 62.7534C85.7044 63.9037 86.5554 64.9179 87.7058 65.0186L109.441 66.9201C110.591 67.0208 111.605 66.1698 111.706 65.0194C111.807 63.869 110.956 62.8549 109.805 62.7542L88.0703 60.8526ZM87.4628 67.7958C86.3125 67.6951 85.2983 68.5461 85.1976 69.6965C85.097 70.8469 85.948 71.861 87.0984 71.9617L108.834 73.8632C109.984 73.9639 110.998 73.1129 111.099 71.9625C111.199 70.8121 110.348 69.798 109.198 69.6973L87.4628 67.7958Z" fill="black" fill-opacity="0.2"/>
<rect width="42" height="70" rx="8" transform="matrix(-0.996195 -0.0871557 -0.0871557 0.996195 123.94 16.9634)" fill="url(#paint1_linear_153_2470)" fill-opacity="0.2"/>
<rect x="30.9707" width="62" height="100" rx="8" fill="url(#paint2_linear_153_2470)"/>
<mask id="mask0_153_2470" style="mask-type:alpha" maskUnits="userSpaceOnUse" x="30" y="0" width="63" height="100">
<rect x="30.9707" width="62" height="100" rx="8" fill="white"/>
</mask>
<g mask="url(#mask0_153_2470)">
<g style="mix-blend-mode:overlay" opacity="0.7" filter="url(#filter0_f_153_2470)">
<rect x="44.9717" y="-31" width="81" height="81" rx="40.5" fill="white"/>
</g>
</g>
<g filter="url(#filter1_d_153_2470)">
<path fill-rule="evenodd" clip-rule="evenodd" d="M43.9707 17C42.3138 17 40.9707 18.3431 40.9707 20C40.9707 21.6569 42.3139 23 43.9707 23H79.9707C81.6276 23 82.9707 21.6569 82.9707 20C82.9707 18.3431 81.6276 17 79.9707 17H43.9707ZM40.9707 40C40.9707 38.3431 42.3138 37 43.9707 37H79.9707C81.6276 37 82.9707 38.3431 82.9707 40C82.9707 41.6569 81.6276 43 79.9707 43H43.9707C42.3139 43 40.9707 41.6569 40.9707 40ZM43.9707 47C42.3138 47 40.9707 48.3431 40.9707 50C40.9707 51.6569 42.3139 53 43.9707 53H79.9707C81.6276 53 82.9707 51.6569 82.9707 50C82.9707 48.3431 81.6276 47 79.9707 47H43.9707ZM40.9707 60C40.9707 58.3431 42.3138 57 43.9707 57H79.9707C81.6276 57 82.9707 58.3431 82.9707 60C82.9707 61.6569 81.6276 63 79.9707 63H43.9707C42.3139 63 40.9707 61.6569 40.9707 60ZM43.9707 67C42.3138 67 40.9707 68.3431 40.9707 70C40.9707 71.6569 42.3139 73 43.9707 73H79.9707C81.6276 73 82.9707 71.6569 82.9707 70C82.9707 68.3431 81.6276 67 79.9707 67H43.9707ZM53.9707 77C52.3138 77 50.9707 78.3431 50.9707 80C50.9707 81.6569 52.3138 83 53.9707 83H69.9707C71.6276 83 72.9707 81.6569 72.9707 80C72.9707 78.3431 71.6276 77 69.9707 77H53.9707Z" fill="white"/>
</g>
<defs>
<filter id="filter0_f_153_2470" x="17.7889" y="-58.1828" width="135.366" height="135.366" filterUnits="userSpaceOnUse" color-interpolation-filters="sRGB">
<feFlood flood-opacity="0" result="BackgroundImageFix"/>
<feBlend mode="normal" in="SourceGraphic" in2="BackgroundImageFix" result="shape"/>
<feGaussianBlur stdDeviation="13.5914" result="effect1_foregroundBlur_153_2470"/>
</filter>
<filter id="filter1_d_153_2470" x="36.9707" y="15" width="50" height="74" filterUnits="userSpaceOnUse" color-interpolation-filters="sRGB">
<feFlood flood-opacity="0" result="BackgroundImageFix"/>
<feColorMatrix in="SourceAlpha" type="matrix" values="0 0 0 0 0 0 0 0 0 0 0 0 0 0 0 0 0 0 127 0" result="hardAlpha"/>
<feOffset dy="2"/>
<feGaussianBlur stdDeviation="2"/>
<feColorMatrix type="matrix" values="0 0 0 0 0 0 0 0 0 0 0 0 0 0 0 0 0 0 0.15 0"/>
<feBlend mode="normal" in2="BackgroundImageFix" result="effect1_dropShadow_153_2470"/>
<feBlend mode="normal" in="SourceGraphic" in2="effect1_dropShadow_153_2470" result="shape"/>
</filter>
<linearGradient id="paint0_linear_153_2470" x1="0" y1="86.9634" x2="42" y2="86.9634" gradientUnits="userSpaceOnUse">
<stop stop-opacity="0.01"/>
<stop offset="1"/>
</linearGradient>
<linearGradient id="paint1_linear_153_2470" x1="0" y1="70" x2="42" y2="70" gradientUnits="userSpaceOnUse">
<stop stop-opacity="0.01"/>
<stop offset="1"/>
</linearGradient>
<linearGradient id="paint2_linear_153_2470" x1="-0.0292969" y1="50" x2="89.5402" y2="105.533" gradientUnits="userSpaceOnUse">
<stop stop-color="#9C3CB5"/>
<stop offset="1" stop-color="#DF5A80"/>
</linearGradient>
</defs>
</svg>
