<svg width="29" height="80" viewBox="0 0 29 80" fill="none" xmlns="http://www.w3.org/2000/svg">
<path d="M2.54611 35.5854C-0.942065 49.9192 0.735678 63.6766 7.2461 74.5499L2.6348 72.871C1.7018 72.5314 0.693282 72.9652 0.378685 73.8296C0.0640881 74.6939 0.557809 75.6745 1.49081 76.0141L9.91142 79.0789C10.8377 79.4161 11.8529 78.9847 12.1675 78.1204L15.0275 70.2627C15.3421 69.3983 14.8416 68.4153 13.9154 68.0781C12.9891 67.741 11.9739 68.1724 11.6593 69.0367L10.2566 72.8895C4.25036 62.7896 2.74008 49.9377 6.01535 36.4815C9.56611 21.863 18.4142 8.20095 27.5285 3.27101C28.3661 2.81415 28.6243 1.79044 28.1115 0.977362C27.5954 0.163054 26.4968 -0.130051 25.6614 0.320518C19.0878 3.87696 12.6708 11.5118 8.01302 20.7752L7.52078 21.7738C5.41753 26.1272 3.70585 30.8128 2.54611 35.5854Z" fill="#DB5883"/>
</svg>
