<svg width="142" height="95" viewBox="0 0 142 95" fill="none" xmlns="http://www.w3.org/2000/svg">
<path fill-rule="evenodd" clip-rule="evenodd" d="M141.349 23.0653C142.276 17.8077 138.778 12.7962 133.536 11.8719L70.2565 0.714021C65.0142 -0.210324 60.013 3.30251 59.086 8.56015L58.5264 11.7334L140.789 26.2386L141.349 23.0653ZM56.5996 22.6596L69.9899 20.2986L57.4071 18.0799L56.5996 22.6596ZM87.0272 23.3027C88.1292 24.7424 88.9171 26.4773 89.2577 28.4093L89.9137 32.1297L89.9136 32.1297L95.5452 64.0678L123.464 68.9906C128.706 69.915 133.707 66.4022 134.634 61.1445L139.67 32.5851L87.0272 23.3027Z" fill="#751E85"/>
<mask id="mask0_153_2502" style="mask-type:alpha" maskUnits="userSpaceOnUse" x="56" y="0" width="86" height="70">
<path fill-rule="evenodd" clip-rule="evenodd" d="M141.349 23.0653C142.276 17.8077 138.778 12.7962 133.536 11.8719L70.2565 0.714021C65.0142 -0.210324 60.013 3.30251 59.086 8.56015L58.5264 11.7334L140.789 26.2386L141.349 23.0653ZM56.5996 22.6596L69.9899 20.2986L57.4071 18.0799L56.5996 22.6596ZM87.0272 23.3027C88.1292 24.7424 88.9171 26.4773 89.2577 28.4093L89.9137 32.1297L89.9136 32.1297L95.5452 64.0678L123.464 68.9906C128.706 69.915 133.707 66.4022 134.634 61.1445L139.67 32.5851L87.0272 23.3027Z" fill="white"/>
</mask>
<g mask="url(#mask0_153_2502)">
<rect x="55.9717" y="-1" width="86" height="70" fill="url(#paint0_linear_153_2502)"/>
</g>
<path fill-rule="evenodd" clip-rule="evenodd" d="M73.7428 24.7144C78.9851 23.79 83.9862 27.3029 84.9133 32.5605L85.4728 35.7338L3.20981 50.239L2.65028 47.0657C1.72321 41.8081 5.22134 36.7966 10.4636 35.8722L73.7428 24.7144ZM20.5354 92.991C15.2932 93.9154 10.292 90.4025 9.3649 85.1449L4.3291 56.5854L86.5921 42.0803L91.6279 70.6397C92.555 75.8973 89.0569 80.9088 83.8146 81.8332L20.5354 92.991ZM25.5515 65.9311L19.2235 67.0468C17.4761 67.355 16.3101 69.0255 16.6191 70.778C16.9281 72.5306 18.5952 73.7015 20.3426 73.3934L26.6705 72.2776C28.4179 71.9695 29.584 70.299 29.275 68.5464C28.9659 66.7939 27.2989 65.6229 25.5515 65.9311ZM20.9013 76.5669L39.885 73.2195C41.6325 72.9114 43.2995 74.0823 43.6085 75.8349C43.9176 77.5874 42.7515 79.2579 41.0041 79.566L22.0203 82.9134C20.2729 83.2215 18.6059 82.0506 18.2968 80.298C17.9878 78.5455 19.1539 76.875 20.9013 76.5669Z" fill="url(#paint1_linear_153_2502)"/>
<mask id="mask1_153_2502" style="mask-type:alpha" maskUnits="userSpaceOnUse" x="2" y="24" width="90" height="70">
<path fill-rule="evenodd" clip-rule="evenodd" d="M73.7428 24.7144C78.9851 23.79 83.9862 27.3029 84.9133 32.5605L85.4728 35.7338L3.20981 50.239L2.65028 47.0657C1.72321 41.8081 5.22134 36.7966 10.4636 35.8722L73.7428 24.7144ZM20.5354 92.991C15.2932 93.9154 10.292 90.4025 9.3649 85.1449L4.3291 56.5854L86.5921 42.0803L91.6279 70.6397C92.555 75.8973 89.0569 80.9088 83.8146 81.8332L20.5354 92.991ZM25.5515 65.9311L19.2235 67.0468C17.4761 67.355 16.3101 69.0255 16.6191 70.778C16.9281 72.5306 18.5952 73.7015 20.3426 73.3934L26.6705 72.2776C28.4179 71.9695 29.584 70.299 29.275 68.5464C28.9659 66.7939 27.2989 65.6229 25.5515 65.9311ZM20.9013 76.5669L39.885 73.2195C41.6325 72.9114 43.2995 74.0823 43.6085 75.8349C43.9176 77.5874 42.7515 79.2579 41.0041 79.566L22.0203 82.9134C20.2729 83.2215 18.6059 82.0506 18.2968 80.298C17.9878 78.5455 19.1539 76.875 20.9013 76.5669Z" fill="white"/>
</mask>
<g mask="url(#mask1_153_2502)">
<g style="mix-blend-mode:overlay" opacity="0.5" filter="url(#filter0_f_153_2502)">
<rect x="30.9717" y="-12" width="81" height="81" rx="40.5" fill="white"/>
</g>
</g>
<defs>
<filter id="filter0_f_153_2502" x="3.78886" y="-39.1828" width="135.366" height="135.366" filterUnits="userSpaceOnUse" color-interpolation-filters="sRGB">
<feFlood flood-opacity="0" result="BackgroundImageFix"/>
<feBlend mode="normal" in="SourceGraphic" in2="BackgroundImageFix" result="shape"/>
<feGaussianBlur stdDeviation="13.5914" result="effect1_foregroundBlur_153_2502"/>
</filter>
<linearGradient id="paint0_linear_153_2502" x1="51.4063" y1="70.858" x2="141.972" y2="70.858" gradientUnits="userSpaceOnUse">
<stop stop-opacity="0.3"/>
<stop offset="1" stop-opacity="0.01"/>
</linearGradient>
<linearGradient id="paint1_linear_153_2502" x1="-35.1242" y1="73.3579" x2="31.985" y2="140.999" gradientUnits="userSpaceOnUse">
<stop stop-color="#9C3CB5"/>
<stop offset="1" stop-color="#DF5A80"/>
</linearGradient>
</defs>
</svg>
