<svg width="24" height="80" viewBox="0 0 24 80" fill="none" xmlns="http://www.w3.org/2000/svg">
<path d="M23.589 41.6485C21.9644 56.3109 15.6825 68.6648 5.84581 76.6557L10.7532 76.6552C11.7461 76.6552 12.5454 77.4078 12.5454 78.3276C12.5454 79.2474 11.7461 80 10.7532 80H1.7922C0.806492 80 0 79.2474 0 78.3276V69.9656C0 69.0458 0.806492 68.2932 1.7922 68.2932C2.77792 68.2932 3.58441 69.0458 3.58441 69.9656L3.58474 74.0658C12.6831 66.6292 18.498 55.0689 20.0225 41.304C21.6857 26.3527 18.0439 10.4884 11.1654 2.73846C10.5346 2.02267 10.6421 0.972404 11.402 0.383719C12.1655 -0.204966 13.2982 -0.104622 13.929 0.604476C21.3702 8.98989 25.3418 25.8778 23.589 41.6485Z" fill="#9F3DB2"/>
</svg>
