<svg width="24" height="24" viewBox="0 0 24 24" fill="none" xmlns="http://www.w3.org/2000/svg">
<path opacity="0.3" fill-rule="evenodd" clip-rule="evenodd" d="M24 12C24 18.627 18.627 24 12 24C5.373 24 0 18.627 0 12C0 5.373 5.373 0 12 0C18.627 0 24 5.373 24 12ZM8.43127 9.40107C7.87177 8.84157 6.96652 8.84157 6.40702 9.40107C5.84752 9.96657 5.84752 10.8808 6.40627 11.4463L10.9768 16.0633C11.5363 16.6228 12.4445 16.6228 13.001 16.0633L17.5745 11.4463C18.134 10.8808 18.131 9.96657 17.5745 9.40107C17.015 8.84157 16.1098 8.84157 15.5503 9.40107L11.9908 13.0018L8.43127 9.40107Z" fill="#767E92"/>
</svg>
