<svg width="80" height="24" viewBox="0 0 80 24" fill="none" xmlns="http://www.w3.org/2000/svg">
<path fill-rule="evenodd" clip-rule="evenodd" d="M74.066 3.58439C66.6295 12.683 55.0691 18.4979 41.304 20.0225C26.3527 21.6857 10.4884 18.0439 2.73846 11.1654C2.02267 10.5346 0.972404 10.6421 0.383719 11.402C-0.204965 12.1655 -0.104622 13.2982 0.604476 13.929C8.98989 21.3702 25.8778 25.3418 41.6485 23.589C56.3105 21.9644 68.6641 15.6829 76.655 5.84669V10.7532C76.655 11.7461 77.4075 12.5454 78.3274 12.5454C79.2472 12.5454 79.9998 11.7461 79.9998 10.7532V1.79218C79.9998 0.806471 79.2472 -2.09808e-05 78.3274 -2.09808e-05H69.9654C69.0455 -2.09808e-05 68.293 0.806471 68.293 1.79218C68.293 2.77789 69.0455 3.58439 69.9654 3.58439H74.066Z" fill="#DB5883"/>
</svg>
