<svg width="80" height="24" viewBox="0 0 80 24" fill="none" xmlns="http://www.w3.org/2000/svg">
<path fill-rule="evenodd" clip-rule="evenodd" d="M74.066 20.4156C66.6295 11.317 55.0691 5.50206 41.304 3.97749C26.3527 2.31433 10.4884 5.95609 2.73846 12.8346C2.02267 13.4654 0.972404 13.3579 0.383719 12.598C-0.204965 11.8345 -0.104622 10.7018 0.604476 10.071C8.98989 2.62975 25.8778 -1.34177 41.6485 0.411004C56.3105 2.03559 68.6641 8.31713 76.655 18.1533V13.2468C76.655 12.2539 77.4075 11.4546 78.3274 11.4546C79.2472 11.4546 79.9998 12.2539 79.9998 13.2468V22.2078C79.9998 23.1935 79.2472 24 78.3274 24H69.9654C69.0455 24 68.293 23.1935 68.293 22.2078C68.293 21.2221 69.0455 20.4156 69.9654 20.4156H74.066Z" fill="#9F3DB2"/>
</svg>
