<svg width="137" height="137" viewBox="0 0 137 137" fill="none" xmlns="http://www.w3.org/2000/svg">
<path d="M70.9997 63.337L91.2997 36.8075L92.4997 45.1227C92.7998 47.2015 94.5997 48.7854 96.6997 48.7854C96.8997 48.7854 97.0997 48.7854 97.2997 48.7854C99.5997 48.4884 101.3 46.3106 100.9 44.0338L98.3997 25.6216C98.0997 23.3448 95.8997 21.662 93.5997 22.0579L74.8997 24.5327C72.5997 24.8297 70.8997 27.0074 71.2997 29.2842C71.5997 31.561 73.7997 33.2439 76.0997 32.8479L84.4997 31.66L66.7997 54.9228L51.4997 43.4399C49.5997 42.054 46.8997 42.351 45.4997 44.2318L24.4997 71.8502C23.0997 73.731 23.3997 76.4038 25.2997 77.7896C26.0997 78.3836 26.9997 78.6805 27.8997 78.6805C29.1997 78.6805 30.4997 78.0866 31.2997 76.9977L49.7997 52.844L65.0997 64.3269C66.8997 65.6138 69.5997 65.2178 70.9997 63.337Z" fill="url(#paint0_linear_153_2540)"/>
<path d="M39.1 88.3818H25.4C23.5 88.3818 22 89.8667 22 91.7475V112.635C22 114.515 23.5 116 25.4 116H39.1C41 116 42.5 114.515 42.5 112.635V91.7475C42.5 89.8667 41 88.3818 39.1 88.3818Z" fill="#190769"/>
<path d="M69.9002 74.8198H56.1002C54.2002 74.8198 52.7002 76.3047 52.7002 78.1855V112.634C52.7002 114.515 54.2002 116 56.1002 116H69.8002C71.7002 116 73.2002 114.515 73.2002 112.634V78.1855C73.3002 76.3047 71.7002 74.8198 69.9002 74.8198Z" fill="#420E70"/>
<path d="M100.6 61.2583H86.9C85 61.2583 83.5 62.7432 83.5 64.624V112.535C83.5 114.416 85 115.901 86.9 115.901H100.6C102.5 115.901 104 114.416 104 112.535V64.723C104 62.8422 102.5 61.2583 100.6 61.2583Z" fill="#8721AB"/>
<g style="mix-blend-mode:overlay" opacity="0.5" filter="url(#filter0_f_153_2540)">
<rect x="27.9717" y="28" width="81" height="81" rx="40.5" fill="white"/>
</g>
<defs>
<filter id="filter0_f_153_2540" x="0.788862" y="0.817183" width="135.366" height="135.366" filterUnits="userSpaceOnUse" color-interpolation-filters="sRGB">
<feFlood flood-opacity="0" result="BackgroundImageFix"/>
<feBlend mode="normal" in="SourceGraphic" in2="BackgroundImageFix" result="shape"/>
<feGaussianBlur stdDeviation="13.5914" result="effect1_foregroundBlur_153_2540"/>
</filter>
<linearGradient id="paint0_linear_153_2540" x1="-15.0372" y1="50.3403" x2="39.0141" y2="124.084" gradientUnits="userSpaceOnUse">
<stop stop-color="#9C3CB5"/>
<stop offset="1" stop-color="#DF5A80"/>
</linearGradient>
</defs>
</svg>
